<svg width="513" height="513" viewBox="0 0 513 513" fill="none" xmlns="http://www.w3.org/2000/svg">
<path d="M408.43 186.291H105.094C92 186.291 81.0931 196.5 76.6089 211.522C55.6203 281.831 11.5441 430.323 3.1486 461.811C-5.24687 493.299 6.5 512.777 23.1378 512.777C165.394 512.945 456.401 512.777 482.39 512.777C504.5 512.777 516.671 485 511.874 468.876C489.053 392.174 441.912 234.027 435.915 215.054C430.999 199.5 420 186.291 408.43 186.291Z" fill="#9C9C9C"/>
<g filter="url(#filter0_i_2_29)">
<path d="M397.852 199H116.542C104.399 199 94.2845 208.437 90.1259 222.323C70.6613 287.315 29.7856 424.576 21.9997 453.682C14.2139 482.789 21.9997 500.794 40.5375 500.794C172.464 500.949 442.343 501.167 466.442 500.794C490.541 500.421 498.282 475.278 493.785 460.213C472.621 389.312 428.903 243.126 423.342 225.588C418.783 211.21 408.582 199 397.852 199Z" fill="#FFFAE1"/>
</g>
<path d="M402.98 381.181C398.825 399.608 380.267 446.925 321.086 472.524L297.305 448.034L257.205 485C234.381 484.719 211.937 479.604 191.627 470.055C171.318 460.506 153.694 446.783 140.134 429.958C144.393 431.178 148.793 431.941 153.245 432.231C159.82 432.342 166.92 430.124 166.92 420.032V320.335C167.013 317.773 166.45 315.228 165.278 312.901C164.107 310.574 162.358 308.53 160.171 306.932C157.985 305.334 155.421 304.227 152.684 303.698C149.948 303.169 147.114 303.233 144.41 303.885C125.853 307.803 111.007 350.259 111.007 350.259C110.8 330.657 115.255 311.249 124.06 293.384C132.866 275.52 145.812 259.626 161.999 246.809C183.304 229.919 209.386 218.892 237.236 215C216.944 225.591 205.568 242.854 205.568 257.326C205.568 280.652 220.898 277.824 225.416 274.386V408.942C226.186 410.63 227.189 412.22 228.401 413.674C230.429 416.243 233.098 418.331 236.186 419.762C239.274 421.192 242.691 421.925 246.152 421.899C261.481 421.899 281.39 405.856 281.39 405.856V296.954C281.39 285.864 272.273 272.482 263.135 267.898C263.135 267.898 280.039 265.144 293.069 274.294C295.521 271.553 298.126 268.931 300.875 266.438C331.293 239.083 359.955 231.284 383.818 227.402C383.818 227.402 340.43 258.638 340.43 300.595C340.43 331.776 341.297 407.815 341.297 407.815C357.414 422.065 381.357 401.494 403 381.181H402.98Z" fill="black"/>
<g filter="url(#filter1_d_2_29)">
<path d="M256.5 350L158.206 178.25L354.794 178.25L256.5 350Z" fill="#F6650C"/>
</g>
<ellipse cx="256.5" cy="116" rx="116.5" ry="116" fill="#F6650C"/>
<circle cx="256.5" cy="120.5" r="55.5" fill="white"/>
<defs>
<filter id="filter0_i_2_29" x="19" y="199" width="476" height="306" filterUnits="userSpaceOnUse" color-interpolation-filters="sRGB">
<feFlood flood-opacity="0" result="BackgroundImageFix"/>
<feBlend mode="normal" in="SourceGraphic" in2="BackgroundImageFix" result="shape"/>
<feColorMatrix in="SourceAlpha" type="matrix" values="0 0 0 0 0 0 0 0 0 0 0 0 0 0 0 0 0 0 127 0" result="hardAlpha"/>
<feOffset dy="4"/>
<feGaussianBlur stdDeviation="2"/>
<feComposite in2="hardAlpha" operator="arithmetic" k2="-1" k3="1"/>
<feColorMatrix type="matrix" values="0 0 0 0 0 0 0 0 0 0 0 0 0 0 0 0 0 0 0.25 0"/>
<feBlend mode="normal" in2="shape" result="effect1_innerShadow_2_29"/>
</filter>
<filter id="filter1_d_2_29" x="154.206" y="178.25" width="204.588" height="179.75" filterUnits="userSpaceOnUse" color-interpolation-filters="sRGB">
<feFlood flood-opacity="0" result="BackgroundImageFix"/>
<feColorMatrix in="SourceAlpha" type="matrix" values="0 0 0 0 0 0 0 0 0 0 0 0 0 0 0 0 0 0 127 0" result="hardAlpha"/>
<feOffset dy="4"/>
<feGaussianBlur stdDeviation="2"/>
<feComposite in2="hardAlpha" operator="out"/>
<feColorMatrix type="matrix" values="0 0 0 0 0 0 0 0 0 0 0 0 0 0 0 0 0 0 0.25 0"/>
<feBlend mode="normal" in2="BackgroundImageFix" result="effect1_dropShadow_2_29"/>
<feBlend mode="normal" in="SourceGraphic" in2="effect1_dropShadow_2_29" result="shape"/>
</filter>
</defs>
</svg>
